HIERARCHY
ROOT joint_0
{
	OFFSET 0.000000 0.000000 0.000000
	CHANNELS 6 Xposition Yposition Zposition Zrotation Yrotation Xrotation 
	JOINT joint_1
	{
		OFFSET 6.579712 -2.778931 100.531982
		CHANNELS 3 Zrotation Yrotation Xrotation
		JOINT joint_2
		{
			OFFSET -3.313232 -1.302856 91.974976
			CHANNELS 3 Zrotation Yrotation Xrotation
			JOINT joint_3
			{
				OFFSET -3.421509 -1.641846 91.864014
				CHANNELS 3 Zrotation Yrotation Xrotation
				JOINT joint_4
				{
					OFFSET 7.697388 -4.642578 123.278931
					CHANNELS 3 Zrotation Yrotation Xrotation
					JOINT joint_5
					{
						OFFSET 24.842529 -5.941528 79.695068
						CHANNELS 3 Zrotation Yrotation Xrotation
						End Site
						{
							OFFSET 0.000000 0.000000 0.000000
						}
					}
				}
				JOINT joint_6
				{
					OFFSET -0.159668 -29.112976 68.364014
					CHANNELS 3 Zrotation Yrotation Xrotation
					JOINT joint_7
					{
						OFFSET -18.356079 -115.987061 -20.069092
						CHANNELS 3 Zrotation Yrotation Xrotation
						JOINT joint_8
						{
							OFFSET 31.719482 -11.733276 -267.170898
							CHANNELS 3 Zrotation Yrotation Xrotation
							JOINT joint_9
							{
								OFFSET 29.329956 -5.879517 -234.654053
								CHANNELS 3 Zrotation Yrotation Xrotation
								End Site
								{
									OFFSET 0.000000 0.000000 0.000000
								}
							}
						}
					}
				}
				JOINT joint_10
				{
					OFFSET 8.802979 23.897949 69.798950
					CHANNELS 3 Zrotation Yrotation Xrotation
					JOINT joint_11
					{
						OFFSET 21.159058 115.524292 -19.981934
						CHANNELS 3 Zrotation Yrotation Xrotation
						JOINT joint_12
						{
							OFFSET 18.809204 5.403442 -268.593018
							CHANNELS 3 Zrotation Yrotation Xrotation
							JOINT joint_13
							{
								OFFSET 20.807861 0.421265 -235.639038
								CHANNELS 3 Zrotation Yrotation Xrotation
								End Site
								{
									OFFSET 0.000000 0.000000 0.000000
								}
							}
						}
					}
				}
			}
		}
	}
	JOINT joint_14
	{
		OFFSET -9.713379 -79.513916 -99.348022
		CHANNELS 3 Zrotation Yrotation Xrotation
		JOINT joint_15
		{
			OFFSET -40.607788 -6.518372 -502.938019
			CHANNELS 3 Zrotation Yrotation Xrotation
			JOINT joint_16
			{
				OFFSET -19.807617 -7.437378 -399.590012
				CHANNELS 3 Zrotation Yrotation Xrotation
				JOINT joint_17
				{
					OFFSET 171.701660 -44.751282 -77.782000
					CHANNELS 3 Zrotation Yrotation Xrotation
					End Site
					{
						OFFSET 0.000000 0.000000 0.000000
					}
				}
			}
		}
	}
	JOINT joint_18
	{
		OFFSET 17.854858 79.618652 -98.128052
		CHANNELS 3 Zrotation Yrotation Xrotation
		JOINT joint_19
		{
			OFFSET -24.848877 16.861816 -503.722992
			CHANNELS 3 Zrotation Yrotation Xrotation
			JOINT joint_20
			{
				OFFSET -30.162476 14.470093 -398.750008
				CHANNELS 3 Zrotation Yrotation Xrotation
				JOINT joint_21
				{
					OFFSET 176.096680 -10.987549 -80.021000
					CHANNELS 3 Zrotation Yrotation Xrotation
					End Site
					{
						OFFSET 0.000000 0.000000 0.000000
					}
				}
			}
		}
	}
}
MOTION
Frames: 16
Frame Time: 0.016667
-1729.785400 849.217957 1096.996948 19.301132 -1.193877 -0.670037 0.074479 -0.313806 -0.749866 0.118941 0.026781 0.159713 0.107711 -0.062514 -0.112652 0.082994 1.716514 0.077388 0.000000 0.000000 0.000000 -0.345396 3.455053 0.807772 0.051882 3.207468 1.999701 -0.121869 -3.582128 -1.909379 0.000000 0.000000 0.000000 1.300630 0.907109 1.481118 -0.205366 1.402918 -2.637661 0.059469 -1.630012 1.617216 0.000000 0.000000 0.000000 0.469899 -2.456516 0.354988 0.385193 8.028859 0.820357 1.163290 -5.040102 -0.789105 0.000000 0.000000 0.000000 -2.004174 -1.265217 -0.122208 -1.816987 5.345148 0.756746 -1.914883 -3.777441 -1.104266 0.000000 0.000000 0.000000 
-1730.151245 849.219788 1097.001953 19.305314 -1.197499 -0.672894 0.078357 -0.299727 -0.718553 0.120848 0.024108 0.153767 0.110080 -0.058462 -0.108355 0.084587 1.715371 0.071615 0.000000 0.000000 0.000000 -0.341666 3.445642 0.806690 0.051307 3.200257 1.989086 -0.122750 -3.575514 -1.915772 0.000000 0.000000 0.000000 1.312258 0.910803 1.479836 -0.204566 1.401636 -2.621685 0.059058 -1.629505 1.613191 0.000000 0.000000 0.000000 0.465487 -2.481201 0.352848 0.381740 8.047914 0.817243 1.162089 -5.042792 -0.790386 0.000000 0.000000 0.000000 -2.004346 -1.268144 -0.117985 -1.817052 5.312115 0.741090 -1.915506 -3.752383 -1.103009 0.000000 0.000000 0.000000 
-1730.523438 849.221619 1096.996948 19.309331 -1.199722 -0.677572 0.082434 -0.284877 -0.685846 0.122863 0.021672 0.147326 0.112583 -0.055056 -0.103384 0.086001 1.717920 0.067049 0.000000 0.000000 0.000000 -0.342675 3.438553 0.803275 0.050861 3.193612 1.981869 -0.123207 -3.575585 -1.919752 0.000000 0.000000 0.000000 1.321286 0.914883 1.479437 -0.204131 1.402103 -2.610094 0.058704 -1.629669 1.610293 0.000000 0.000000 0.000000 0.461290 -2.508484 0.352184 0.378652 8.068330 0.814838 1.161474 -5.045538 -0.791421 0.000000 0.000000 0.000000 -2.005359 -1.274685 -0.112745 -1.817692 5.283059 0.727187 -1.916536 -3.727478 -1.101944 0.000000 0.000000 0.000000 
-1730.904175 849.220581 1096.970947 19.314379 -1.199932 -0.685961 0.086995 -0.268649 -0.650236 0.125222 0.019498 0.140953 0.115385 -0.052644 -0.099015 0.086535 1.722793 0.065752 0.000000 0.000000 0.000000 -0.350903 3.434751 0.796202 0.050561 3.187645 1.979361 -0.122797 -3.587891 -1.918803 0.000000 0.000000 0.000000 1.325109 0.918344 1.484352 -0.204502 1.405677 -2.609177 0.058688 -1.631235 1.612897 0.000000 0.000000 0.000000 0.456710 -2.539302 0.354901 0.375477 8.090540 0.813852 1.161117 -5.048388 -0.792370 0.000000 0.000000 0.000000 -2.008991 -1.285141 -0.103271 -1.820460 5.256798 0.713402 -1.919622 -3.702391 -1.101796 0.000000 0.000000 0.000000 
-1731.292236 849.219177 1096.935059 19.319612 -1.198975 -0.696092 0.091241 -0.250428 -0.612749 0.127064 0.016529 0.133033 0.117748 -0.050544 -0.093994 0.086530 1.731324 0.066818 0.000000 0.000000 0.000000 -0.362720 3.432988 0.787380 0.050358 3.182255 1.980302 -0.122006 -3.607620 -1.915781 0.000000 0.000000 0.000000 1.327956 0.922215 1.490506 -0.205238 1.410796 -2.612528 0.058705 -1.633886 1.616608 0.000000 0.000000 0.000000 0.452008 -2.572489 0.358889 0.372285 8.114074 0.813931 1.160987 -5.051174 -0.793205 0.000000 0.000000 0.000000 -2.013553 -1.299069 -0.092777 -1.823883 5.234492 0.701143 -1.923198 -3.676975 -1.101850 0.000000 0.000000 0.000000 
-1731.676392 849.215881 1096.909058 19.324079 -1.200111 -0.705111 0.094396 -0.229051 -0.577607 0.127811 0.013580 0.125214 0.119020 -0.047354 -0.089317 0.086466 1.738638 0.067864 0.000000 0.000000 0.000000 -0.372866 3.432155 0.780701 0.050370 3.177745 1.985387 -0.121830 -3.627322 -1.916940 0.000000 0.000000 0.000000 1.330485 0.926377 1.493899 -0.205779 1.415550 -2.614557 0.058984 -1.633720 1.621501 0.000000 0.000000 0.000000 0.447953 -2.602827 0.361344 0.369471 8.136371 0.814755 1.161079 -5.052109 -0.793458 0.000000 0.000000 0.000000 -2.017512 -1.313917 -0.085851 -1.826834 5.219721 0.693968 -1.925944 -3.654085 -1.101681 0.000000 0.000000 0.000000 
-1732.055298 849.209167 1096.904053 19.326381 -1.205606 -0.711721 0.096353 -0.202293 -0.548103 0.127456 0.009925 0.119078 0.119182 -0.042144 -0.084510 0.086328 1.744498 0.068886 0.000000 0.000000 0.000000 -0.380290 3.430844 0.778812 0.050554 3.173411 1.994068 -0.122839 -3.644120 -1.925946 0.000000 0.000000 0.000000 1.332298 0.931291 1.490151 -0.205626 1.418637 -2.609319 0.059544 -1.628523 1.625975 0.000000 0.000000 0.000000 0.445135 -2.627986 0.361385 0.367542 8.157588 0.815225 1.161795 -5.050536 -0.792776 0.000000 0.000000 0.000000 -2.019539 -1.327984 -0.085069 -1.828232 5.214280 0.693940 -1.926638 -3.633989 -1.100756 0.000000 0.000000 0.000000 
-1732.428955 849.199951 1096.909058 19.327187 -1.213073 -0.716844 0.097484 -0.173898 -0.522407 0.126440 0.008217 0.114008 0.118641 -0.036088 -0.079715 0.085950 1.749224 0.070518 0.000000 0.000000 0.000000 -0.386973 3.430480 0.778747 0.050982 3.169679 2.007395 -0.124607 -3.661159 -1.940142 0.000000 0.000000 0.000000 1.333734 0.936337 1.483241 -0.205255 1.421126 -2.602608 0.060376 -1.620404 1.631673 0.000000 0.000000 0.000000 0.443191 -2.650562 0.359430 0.366152 8.177931 0.816674 1.162942 -5.047372 -0.791486 0.000000 0.000000 0.000000 -2.020502 -1.342899 -0.088169 -1.828722 5.216030 0.698881 -1.926093 -3.616443 -1.099425 0.000000 0.000000 0.000000 
-1732.798584 849.187866 1096.916016 19.328613 -1.218401 -0.720475 0.097917 -0.143663 -0.499695 0.124769 0.003617 0.109757 0.117413 -0.029475 -0.076098 0.085818 1.753707 0.071248 0.000000 0.000000 0.000000 -0.394671 3.434171 0.778771 0.051380 3.169178 2.025044 -0.126707 -3.684523 -1.957247 0.000000 0.000000 0.000000 1.336121 0.941413 1.477116 -0.205252 1.424399 -2.600448 0.061362 -1.612764 1.639877 0.000000 0.000000 0.000000 0.441547 -2.674413 0.354931 0.364742 8.196352 0.820063 1.163951 -5.042905 -0.789921 0.000000 0.000000 0.000000 -2.021580 -1.362578 -0.092579 -1.829001 5.223106 0.703849 -1.925372 -3.600131 -1.098090 0.000000 0.000000 0.000000 
-1733.158691 849.172668 1096.921997 19.330995 -1.219719 -0.722386 0.099035 -0.116272 -0.480575 0.124037 0.000406 0.105452 0.117111 -0.023622 -0.072136 0.085705 1.757214 0.071692 0.000000 0.000000 0.000000 -0.409346 3.444124 0.777194 0.051874 3.172348 2.049847 -0.129341 -3.717501 -1.979027 0.000000 0.000000 0.000000 1.335509 0.945914 1.472956 -0.205931 1.429577 -2.607494 0.062827 -1.605295 1.654916 0.000000 0.000000 0.000000 0.440423 -2.700221 0.346943 0.363363 8.210874 0.826996 1.164763 -5.037455 -0.788187 0.000000 0.000000 0.000000 -2.023336 -1.388135 -0.097199 -1.829469 5.233875 0.706551 -1.925058 -3.584765 -1.096996 0.000000 0.000000 0.000000 
-1733.513794 849.154968 1096.930054 19.333352 -1.218728 -0.722912 0.100174 -0.088708 -0.464245 0.123452 -0.004166 0.102245 0.116883 -0.016767 -0.069971 0.085359 1.760872 0.072911 0.000000 0.000000 0.000000 -0.426741 3.458009 0.776020 0.052334 3.178386 2.078951 -0.132319 -3.756729 -2.003674 0.000000 0.000000 0.000000 1.333609 0.950136 1.469631 -0.206964 1.435587 -2.618786 0.064433 -1.598758 1.672651 0.000000 0.000000 0.000000 0.439761 -2.727613 0.336509 0.362139 8.223899 0.835885 1.165657 -5.031149 -0.786193 0.000000 0.000000 0.000000 -2.025058 -1.418441 -0.103002 -1.829585 5.249583 0.709435 -1.924413 -3.570455 -1.095815 0.000000 0.000000 0.000000 
-1733.867188 849.135681 1096.937988 19.333624 -1.216096 -0.722238 0.100046 -0.061441 -0.450345 0.121768 -0.009349 0.100917 0.115478 -0.009476 -0.068578 0.085847 1.763160 0.071178 0.000000 0.000000 0.000000 -0.438507 3.473787 0.773140 0.052587 3.187109 2.107698 -0.134934 -3.796960 -2.025617 0.000000 0.000000 0.000000 1.337187 0.954167 1.466107 -0.208065 1.440337 -2.629653 0.065422 -1.595138 1.683958 0.000000 0.000000 0.000000 0.439600 -2.759029 0.325355 0.361541 8.241219 0.843700 1.167583 -5.025367 -0.783875 0.000000 0.000000 0.000000 -2.026188 -1.452036 -0.111398 -1.829114 5.268774 0.715518 -1.922911 -3.555746 -1.094218 0.000000 0.000000 0.000000 
-1734.212524 849.120239 1096.944946 19.330648 -1.211791 -0.721759 0.098904 -0.037010 -0.434082 0.119041 -0.013263 0.097984 0.113081 -0.004024 -0.066063 0.087856 1.767275 0.064833 0.000000 0.000000 0.000000 -0.443721 3.493459 0.765926 0.052633 3.200224 2.136314 -0.136921 -3.838635 -2.043015 0.000000 0.000000 0.000000 1.348306 0.959836 1.459200 -0.209012 1.444057 -2.636308 0.065432 -1.595183 1.684391 0.000000 0.000000 0.000000 0.439939 -2.794436 0.315341 0.361800 8.263241 0.849495 1.170709 -5.019695 -0.781048 0.000000 0.000000 0.000000 -2.026156 -1.487143 -0.121304 -1.827630 5.288540 0.725276 -1.920044 -3.538776 -1.091859 0.000000 0.000000 0.000000 
-1734.556519 849.104187 1096.953003 19.326199 -1.205596 -0.720374 0.097478 -0.013463 -0.418381 0.116056 -0.017656 0.094325 0.110485 0.001946 -0.063012 0.090498 1.772017 0.056545 0.000000 0.000000 0.000000 -0.446690 3.515535 0.757030 0.052395 3.216064 2.163979 -0.138489 -3.882150 -2.057421 0.000000 0.000000 0.000000 1.360057 0.965361 1.450998 -0.209988 1.447044 -2.641642 0.064811 -1.598796 1.678606 0.000000 0.000000 0.000000 0.440482 -2.833941 0.304737 0.362391 8.289218 0.854482 1.174554 -5.013981 -0.777889 0.000000 0.000000 0.000000 -2.025578 -1.526006 -0.133351 -1.825531 5.311986 0.737884 -1.916313 -3.521340 -1.089078 0.000000 0.000000 0.000000 
-1734.924805 849.082031 1096.961060 19.322130 -1.199389 -0.717568 0.095702 0.016973 -0.404945 0.112613 -0.023067 0.091689 0.107381 0.008473 -0.060908 0.093542 1.773097 0.046324 0.000000 0.000000 0.000000 -0.447744 3.533741 0.747239 0.052012 3.228932 2.187092 -0.139468 -3.920471 -2.067020 0.000000 0.000000 0.000000 1.370223 0.966988 1.446407 -0.211331 1.447687 -2.650564 0.063683 -1.607555 1.669556 0.000000 0.000000 0.000000 0.440332 -2.878702 0.292661 0.362348 8.323483 0.859021 1.178828 -5.010917 -0.775242 0.000000 0.000000 0.000000 -2.024660 -1.572018 -0.149094 -1.822686 5.347966 0.754741 -1.911626 -3.509867 -1.086228 0.000000 0.000000 0.000000 
-1735.332275 849.050781 1096.969971 19.320677 -1.194143 -0.712900 0.094238 0.058064 -0.395350 0.109355 -0.028787 0.090858 0.104393 0.015764 -0.059444 0.096865 1.768781 0.034252 0.000000 0.000000 0.000000 -0.451702 3.545769 0.736567 0.051544 3.235850 2.204455 -0.139880 -3.951553 -2.071827 0.000000 0.000000 0.000000 1.372416 0.962830 1.447123 -0.213332 1.445968 -2.665741 0.061881 -1.624598 1.657271 0.000000 0.000000 0.000000 0.438854 -2.928995 0.278271 0.360944 8.367552 0.863566 1.183077 -5.010533 -0.773325 0.000000 0.000000 0.000000 -2.024078 -1.628858 -0.169877 -1.819455 5.404423 0.777463 -1.906220 -3.506821 -1.083571 0.000000 0.000000 0.000000 
